<?xml version="1.0"?><svg width="1056" height="815.9999999999999" xmlns="http://www.w3.org/2000/svg">
 <title>scarf</title>
 <g>
  <title>Layer 1</title>
  <g id="layer1">
   <g id="g26551" transform="matrix(1.54266, 0, 0, 1.54266, -478.79, 589.22)">
    <path d="m420.428558,-16.38224c10.629089,-33.180031 28.828705,-61.548218 44.790863,-92.21933c15.750671,-30.274559 43.516479,-52.656105 71.995117,-70.98954c27.414734,-17.657196 57.818237,-40.13945 91.642639,-40.735535c34.959534,-0.61792 67.586731,7.898163 98.944458,21.748032c21.083984,9.315643 38.356628,18.401459 57.272278,31.501923c16.012207,11.073837 28.41925,28.483093 40.040344,43.821724c12.013306,15.822197 18.695923,36.011566 25.807373,54.371468c5.910095,15.281868 12.072937,37.08992 12.750549,53.4344c-147.748474,-0.316641 -295.495117,-0.616511 -443.243622,-0.933131" id="path24536" stroke-miterlimit="4" stroke-width="5.481623" stroke="#000000" fill="#7f00ff"/>
    <path d="m675.146484,-331.867096c-10.493835,0.853149 -19.933228,4.810913 -29.731079,7.916107c-9.700806,3.060669 -16.851563,6.980865 -24.334778,15.074463l-6.506042,10.127563c-18.57373,12.238708 -30.748596,33.063538 -28.139038,57.008881c3.840088,35.236618 33.707031,61.90152 69.799377,57.968155c0.352356,-0.038406 0.698303,-0.098648 1.050598,-0.137039c-0.630859,-0.491547 -1.258789,-0.968384 -1.872864,-1.461777c35.257751,1.183289 60.763,-34.408768 57.10022,-68.017776c-1.307556,-11.99823 -6.109436,-23.062347 -13.201538,-32.250214c4.7229,0.26416 9.518555,0.129974 14.66333,-1.187714c-5.399536,-2.807251 -10.77124,-5.643555 -16.170776,-8.450836c8.267151,-2.038513 16.5354,-4.053711 24.804321,-6.07547c-8.315247,-1.67453 -18.551636,-0.766571 -27.088318,-2.60376c-4.556824,-0.979065 -10.077942,1.407166 -14.7547,1.964264c-1.261963,-0.731964 -2.616272,-1.2771 -3.928528,-1.918579c8.348633,-4.010864 16.731873,-8.003265 25.07843,-12.013885c1.209045,-0.590179 -1.132813,0.001312 -1.324707,-0.045685c-10.088623,-4.860046 -25.755981,2.807556 -36.041687,3.928497c-3.151062,0.343414 -6.939941,1.349182 -10.597778,2.192657c-3.074524,-0.157776 -6.154663,-0.344849 -9.318787,0c-2.921326,0.318359 -5.725769,1.056091 -8.542175,1.73584c9.212219,-8.066925 33.771484,-20.342346 39.056519,-23.753693z" id="path24538" stroke-miterlimit="4" stroke-width="5.481623" stroke="#000000" fill="#7f00ff"/>
    <path d="m631.555664,-89.529129l32.330872,-27.644623l36.497192,29.561295l35.481079,-30.397415l31.636536,30.588623l31.005981,-28.640991l28.684631,31.646851l12.078308,-12.48555c9.060669,20.961929 13.284729,32.916889 17.887146,54.724258l-217.576538,-6.394169c-14.133118,-3.79792 -190.992188,29.290121 -217.20697,34.053881c4.143372,-23.07403 13.987122,-43.705011 27.088257,-66.779051l33.602997,-32.57666l30.345612,26.870277l29.53125,-32.576668l28.83313,31.789894l34.522705,-28.503883c7.672607,9.214844 25.880432,28.591034 25.257813,26.763931z" id="path25782" stroke-miterlimit="4" stroke-width="4.834" stroke="#000000" fill-rule="evenodd" fill="#7f00ff"/>
    <path d="m408.178101,-15.963c-16.70163,25.13179 -37.921936,57.564471 -30.944458,89.963313c3.341034,15.544861 18.43399,26.752831 32.36496,32.127937c3.154968,1.218201 15.953003,5.545273 18.208527,4.586349c9.884003,-4.18425 19.063446,-7.510689 29.423492,-10.286667c67.839142,-18.140602 137.657562,-16.716812 207.166656,-17.975891c36.501038,-0.650093 72.999695,1.637367 109.50061,2.854958c20.345398,0.669113 40.653259,1.461174 60.981201,2.43779c16.078613,0.777573 33.391541,-1.295959 49.265869,0.87912c31.853088,4.37278 7.181335,-79.461539 1.956604,-93.595629c-2.744812,-7.42613 -5.579407,-14.740619 -9.311218,-21.719619c-4.099365,-7.702982 -12.247803,-8.937292 -20.68396,-12.50028c-15.838806,-6.678291 -33.051392,-12.408871 -50.054199,-15.12315c-68.247803,-10.848309 -138.995361,-13.631001 -207.840942,-6.128181c-32.149231,3.503643 -64.564026,3.012291 -96.14505,11.10614c-16.269806,4.167072 -31.989349,9.021233 -47.635193,15.174732c-12.877472,5.070768 -38.673553,9.394049 -47.66626,20.510329" id="path313" stroke-miterlimit="4" stroke-width="5.481623" stroke="#000000" fill="#7f00ff"/>
   </g>
  </g>
 </g>
</svg>